<?xml version="1.0" encoding="UTF-8" standalone="no"?>
<!-- Created with Inkscape (http://www.inkscape.org/) -->

<svg
   xmlnsdc="http://purl.org/dc/elements/1.1/"
   xmlnscc="http://creativecommons.org/ns#"
   xmlnsrdf="http://www.w3.org/1999/02/22-rdf-syntax-ns#"
   xmlnssvg="http://www.w3.org/2000/svg"
   xmlns="http://www.w3.org/2000/svg"
   xmlnssodipodi="http://sodipodi.sourceforge.net/DTD/sodipodi-0.dtd"
   xmlnsinkscape="http://www.inkscape.org/namespaces/inkscape"
   width="45"
   height="45"
   viewBox="-0.6 -0.6 11.90625 11.90625"
   version="1.1"
   id="svg4393"
   sodipodidocname="CommonerB_Transparent.svg"
   inkscapeversion="0.92.1 r15371">
  <defs
     id="defs4387" />
  <sodipodinamedview
     id="base"
     pagecolor="#ffffff"
     bordercolor="#666666"
     borderopacity="1.0"
     inkscapepageopacity="0.0"
     inkscapepageshadow="2"
     inkscapezoom="3"
     inkscapecx="30.240069"
     inkscapecy="21.353804"
     inkscapedocument-units="mm"
     inkscapecurrent-layer="layer1"
     showgrid="false"
     units="px"
     inkscapewindow-width="1600"
     inkscapewindow-height="837"
     inkscapewindow-x="-8"
     inkscapewindow-y="-8"
     inkscapewindow-maximized="1" />
  <metadata
     id="metadata4390">
    <rdfRDF>
      <ccWork
         rdfabout="">
        <dcformat>image/svg+xml</dcformat>
        <dctype
           rdfresource="http://purl.org/dc/dcmitype/StillImage" />
        <dctitle></dctitle>
      </ccWork>
    </rdfRDF>
  </metadata>
  <g
     inkscapelabel="Layer 1"
     inkscapegroupmode="layer"
     id="layer1"
     transform="translate(0,-285.09373)">
    <g
       id="g4572"
       transform="matrix(0.28921369,0,0,0.28921369,-0.54713251,283.72613)">
      <circle
         id="circle4537"
         r="2.5"
         cy="13.5"
         cx="22.5"
         style="fill:#000000;stroke:#000000;stroke-width:1.5;stroke-linejoin:round" />
      <circle
         id="circle4539"
         r="1.5"
         cy="13.5"
         cx="22.5"
         style="fill:none;stroke:#ffffff;stroke-width:1.5;stroke-linejoin:round" />
      <g
         id="g4543"
         style="fill:#000000;stroke:#000000;stroke-width:1.5;stroke-linejoin:round">
        <!-- test -->
        <path
           id="path4541"
           d="m 11.5,37 c 5.5,3.5 15.5,3.5 21,0 v -7 c 0,0 9,-4.5 6,-11 -5.5,-7 -26.5,-7 -32,0 -3,6.5 5,10.5 5,10.5 z"
           inkscapeconnector-curvature="0" />
      </g>
      <g
         id="g4553"
         style="fill:none;stroke:#ffffff;stroke-width:1.5;stroke-linecap:round;stroke-linejoin:round">
        <!-- test -->
        <path
           id="path4545"
           d="m 32,29.5 c 0,0 8.5,-4 6,-9.65 C 32.65,13 12.35,13 7,19.85 c -2.5,5.65 4.85,9 4.85,9"
           inkscapeconnector-curvature="0" />
        <!-- talp -->
        <path
           id="path4547"
           d="M 11.5,30 C 17,27 27,27 32.5,30"
           inkscapeconnector-curvature="0" />
        <path
           id="path4549"
           d="m 11.5,33.5 c 5.5,-3 15.5,-3 21,0"
           inkscapeconnector-curvature="0" />
        <path
           id="path4551"
           d="M 11.5,37 C 17,34 27,34 32.5,37"
           inkscapeconnector-curvature="0" />
      </g>
    </g>
  </g>
</svg>
